# xmcd
#
# Track frame offsets:
#	150
#	22575
#	46050
#	66150
#	87075
#	108300
#	130950
#	151125
#	172125
#	197625
#
# Disc length: 2797 seconds
#
# Revision: 2
# Processed by: cddbd v1.5.1PL0 Copyright (c) Steve Scherf et al.
# Submitted via: EasyCDDAExtractor 8.1.4.1
#
DISCID=750aeb0a
DTITLE=Various Artist - Con Mua Ha
DYEAR=1900
DGENRE=Blues
TTITLE0=Lam Thuy Van - Con mua ha
TTITLE1=Trung Hanh - Yeu em
TTITLE2=Lam Thuy Van - Mua chieu
TTITLE3=Trung Hanh - Say you'll be mine
TTITLE4=Lam Thuy Van - Tinh khuc chieu mua
TTITLE5=Trung Hanh - Summer rain
TTITLE6=Lam Thuy Van and Trung Hanh - Cuoc tinh thoang bay
TTITLE7=Trung Hanh - Tinh yeu da den
TTITLE8=Lam Thuy Van and Trung Hanh - Thuong nhau ngay mua
TTITLE9=Instrumental - Con mua ha - Nhac khong loi
EXTD=
EXTT0=
EXTT1=
EXTT2=
EXTT3=
EXTT4=
EXTT5=
EXTT6=
EXTT7=
EXTT8=
EXTT9=
PLAYORDER=
